<svg xmlns="http://www.w3.org/2000/svg" width="48" height="48" id="owl"><g transform="translate(0 -1004.362)"><circle cx="24" cy="1028.362" r="24" fill="#ffa40b" fill-rule="evenodd"></circle><path style="line-height:normal;text-indent:0;text-align:start;text-decoration-line:none;text-decoration-style:solid;text-decoration-color:#000;text-transform:none;block-progression:tb;isolation:auto;mix-blend-mode:normal" fill="#fff" d="M15.208 1012.361a.494.494 0 0 0-.47.448c-.002.012-.018.082-.018.2v2.854c0 1.17.8 2.365 1.88 2.95l.254.136a7.646 7.646 0 0 0-.798 3.381c0 .91.167 1.777.453 2.582-.497.617-2.883 3.77-2.883 7.836 0 4.517 3.074 8.088 3.074 8.088a.5.5 0 0 0 .762 0s.192-.233.437-.572c.223.236.45.463.684.68a1.36 1.36 0 0 0-.037.304c0 .07.012.135.02.201-4.278.307-6.22.87-6.22.87a.5.5 0 0 0 .296.956s1.823-.546 6.158-.843c.045.155.083.304.133.459.099.306.203.596.3.826.05.115.093.215.149.309a.832.832 0 0 0 .11.15c.053.059.134.187.405.187s.355-.128.409-.187a.818.818 0 0 0 .109-.15c.055-.094.1-.194.148-.31.098-.23.202-.519.301-.825.017-.051.029-.1.045-.153.105.066.212.14.315.202.093.286.191.56.283.777.049.115.095.215.15.309a.832.832 0 0 0 .11.15c.053.059.135.187.406.187.27 0 .352-.128.406-.187a.818.818 0 0 0 .11-.15c.046-.08.086-.168.126-.262.235.106.487.229.692.303.355.127.644.21.943.21.333 0 .664-.1 1.08-.257.273-.103.58-.243.899-.399.011.028.024.07.035.096.049.115.093.215.148.309a.832.832 0 0 0 .11.15c.053.06.135.188.406.188.27 0 .354-.129.408-.188a.818.818 0 0 0 .11-.15c.055-.094.1-.194.148-.309.098-.23.202-.52.3-.826.03-.091.05-.179.079-.271l.154-.106c.038.128.068.25.11.377.099.307.203.596.3.826.05.115.095.215.15.309a.832.832 0 0 0 .11.15c.054.06.135.188.406.188s.353-.129.407-.188a.818.818 0 0 0 .109-.15 2.58 2.58 0 0 0 .15-.309c.098-.23.202-.52.301-.826.047-.145.083-.285.125-.432 4.046.304 5.762.817 5.762.817a.5.5 0 1 0 .295-.957s-1.827-.528-5.819-.84c.01-.076.024-.152.024-.23 0-.21-.053-.409-.139-.588.131-.128.26-.257.387-.391.241.332.432.566.432.566a.5.5 0 0 0 .761 0s3.074-3.57 3.074-8.087c0-4.067-2.386-7.22-2.882-7.836a7.693 7.693 0 0 0 .453-2.582c0-1.221-.3-2.364-.801-3.385l.246-.133c1.08-.585 1.881-1.78 1.881-2.95v-2.853c0-.118-.016-.188-.018-.201a.494.494 0 0 0-.504-.445.494.494 0 0 0-.476.437c-.097.869-.886 2.039-1.758 2.51l-.69.373a.494.494 0 0 0-.001 0l-.942.51a7.513 7.513 0 0 0-4.521-1.514H23.64a.5.5 0 0 0-.16.025 7.538 7.538 0 0 0-4.366 1.488l-.947-.513-.691-.373c-.872-.472-1.66-1.642-1.756-2.51a.494.494 0 0 0-.512-.438zm.498 2.635c.37.464.788.904 1.3 1.182l.692.373 2.553 1.383 1.096.591a.494.494 0 0 0 .086.035c.326.105.661.413.902.817.24.404.377.893.377 1.228v.665a4.27 4.27 0 0 0-1.012-.823.5.5 0 0 0-.02-.014c-.007 0-.013-.01-.02-.016a.5.5 0 0 0-.018-.01c-.008 0-.014-.01-.022-.014l-.7-.379-1.1-.596a.5.5 0 0 0-.05-.025l-1.437-.777-.582-.314a.5.5 0 0 0-.084-.037l-.596-.323c-.716-.386-1.365-1.434-1.365-2.079v-.867zm17.477 0v.865c0 .645-.647 1.693-1.364 2.08l-.611.33a.5.5 0 0 0-.06.03l-.583.314-1.478.8a.5.5 0 0 0-.01 0l-1.1.596-.7.38a.5.5 0 0 0-.094.06c-.374.217-.709.5-1.004.823v-.672c0-.336.136-.825.377-1.229.24-.404.575-.712.902-.816a.494.494 0 0 0 .084-.037l1.096-.592 2.554-1.383.692-.373c.512-.277.928-.716 1.299-1.18zm-9.543.682h1.619a6.48 6.48 0 0 1 3.525 1.052l-.615.333-1.096.593c-.6.222-1.053.691-1.365 1.215-.327.55-.516 1.163-.516 1.734v.647a1.657 1.657 0 0 0-.795-.207c-.248 0-.484.06-.699.16v-.601c0-.572-.188-1.184-.515-1.733-.313-.524-.765-.995-1.366-1.217l-1.097-.593-.608-.329a6.48 6.48 0 0 1 3.528-1.054zm-5.823 3.795.041.024.98.53a2.551 2.551 0 0 0-.355 1.28c0 1.396 1.135 2.541 2.526 2.541.717 0 1.389-.31 1.86-.826.025.112.054.224.091.355a14.921 14.921 0 0 0 .723 1.983c.062.13.119.243.187.346a.871.871 0 0 0 .129.16c.06.059.153.168.398.168.246 0 .337-.11.397-.168a.888.888 0 0 0 .129-.16c.068-.103.127-.215.19-.346.124-.261.257-.593.384-.943s.246-.717.336-1.04c.047-.169.087-.316.115-.456.473.576 1.179.929 1.942.93 1.39 0 2.525-1.146 2.525-2.542a2.55 2.55 0 0 0-.357-1.281l.982-.531.041-.024c.422.876.762 1.809.762 2.853 0 .75-.169 1.45-.395 2.121-.79.01-1.598.05-2.424.217-1.911.386-3.46 1.17-4.576 2.147-1.116-.977-2.665-1.761-4.576-2.147-.77-.155-1.537-.24-2.281-.258a.5.5 0 0 0-.012 0h-.137c-.217-.66-.386-1.346-.386-2.08 0-1.045.34-1.977.761-2.853zm1.983 1.072.644.35.08.043a.607.613 0 0 0-.123.369.607.613 0 0 0 .608.613.607.613 0 0 0 .54-.336c.187.177.362.385.532.592-.285.343-.618.672-1.072.674-.845 0-1.526-.68-1.526-1.541 0-.288.171-.524.317-.764zm9.3 0c.146.24.315.475.315.762 0 .86-.68 1.54-1.525 1.54-.456 0-.789-.33-1.075-.673.171-.207.347-.414.534-.592a.607.613 0 0 0 .54.336.607.613 0 0 0 .608-.613.607.613 0 0 0-.123-.37l.08-.042.647-.348zm-4.703 1.498c.363 0 .594.24.594.498 0 .01-.04.274-.12.565-.082.29-.196.638-.315.966-.055.151-.104.257-.159.393-.054-.136-.105-.242-.16-.393-.119-.328-.233-.676-.314-.966a4.84 4.84 0 0 1-.121-.565c0-.258.233-.498.595-.498zm-6.353 3.395c.536.034 1.08.095 1.63.205 1.93.39 3.488 1.196 4.423 2.123-1.607.063-3.071.558-4.162 1.47a15.095 15.095 0 0 0-1.891-3.798zm12.809 0a15.09 15.09 0 0 0-1.891 3.796c-1.09-.911-2.554-1.407-4.16-1.47.935-.926 2.492-1.734 4.422-2.123.55-.111 1.092-.17 1.629-.203zm-13.772.457c.42.546 1.542 2.094 2.111 4.265a.5.5 0 0 0 .016.127c.178.69.286 1.422.31 2.176.003.095.018.183.018.28a9.818 9.818 0 0 1-.228 2.052 12.017 12.017 0 0 1-.57 1.846c-.337.849-.713 1.532-1.063 2.105-.24.372-.459.668-.594.844-.57-.744-2.455-3.337-2.455-6.85 0-3.512 1.884-6.104 2.455-6.847zm14.736 0c.571.743 2.455 3.335 2.455 6.847 0 3.513-1.884 6.106-2.455 6.85a13.095 13.095 0 0 1-.6-.856c-.345-.57-.719-1.246-1.052-2.085a.5.5 0 0 0-.004-.01 11.375 11.375 0 0 1-.728-2.788 9.789 9.789 0 0 1-.073-1.113c0-.856.13-1.678.33-2.455a.5.5 0 0 0 .016-.133c.57-2.168 1.693-3.714 2.111-4.26zm-7.369 2.855c1.751 0 3.226.592 4.19 1.596-.172.755-.278 1.56-.278 2.396 0 1.46.335 2.8.77 3.973-.627.963-1.598 1.85-2.545 2.469-.5.327-.984.585-1.377.758-.196.086-.38.146-.518.185a1.894 1.894 0 0 1-.24.057c-.012 0-.105-.018-.242-.057a4.16 4.16 0 0 1-.516-.185h-.002a8.534 8.534 0 0 1-.646-.323h-.002a10.854 10.854 0 0 1-.727-.435h-.002c-.947-.62-1.918-1.506-2.545-2.47a11.92 11.92 0 0 0 .705-2.91c.033-.312.056-.628.06-.952 0-.036.005-.07.005-.106 0-.02-.004-.038-.004-.059a10.817 10.817 0 0 0-.275-2.334c.963-1.005 2.437-1.6 4.19-1.6zm-5.142 9.08c.685.861 1.55 1.581 2.384 2.135a1.373 1.373 0 0 0-.656.543 1.35 1.35 0 0 0-1.137-.637 1.32 1.32 0 0 0-.726.22c-.242-.227-.478-.458-.695-.7.267-.434.552-.97.83-1.56zm10.287 0c.278.591.564 1.13.832 1.563-.175.194-.358.384-.549.57a1.308 1.308 0 0 0-.473-.092c-.478 0-.897.257-1.138.637a1.354 1.354 0 0 0-.952-.618c.803-.543 1.623-1.235 2.28-2.06zm-3.715 2.893a1.371 1.371 0 0 0-.102.531 57.11 57.11 0 0 0-2.25-.002v-.01a1.36 1.36 0 0 0-.037-.306c.351.146.653.25.96.25.182 0 .36-.035.548-.092.115-.035.248-.093.375-.145.08-.033.15-.054.236-.092h.002c.084-.037.18-.092.268-.134zm-5.98.148c.147 0 .272.086.326.22a.432.432 0 0 1 .027.153l-.004.018c-.003.01-.044.277-.12.565a.5.5 0 0 0-.005.029c-.06.227-.13.475-.209.72-.005.016-.01.025-.016.041l-.013-.04a13.29 13.29 0 0 1-.244-.842 4.738 4.738 0 0 1-.094-.493c0-.047.01-.089.023-.128a.5.5 0 0 0 .04-.057c.071-.125.166-.186.288-.186zm2.275 0c.147 0 .273.084.326.219a.42.42 0 0 1 .027.15l-.004.018c-.002.024-.05.305-.13.608l-.032.11c-.057.2-.125.409-.195.616-.002-.01-.005-.012-.008-.019-.012-.038-.019-.073-.031-.111a.5.5 0 0 0-.002 0c-.083-.263-.159-.53-.215-.756a6.1 6.1 0 0 1-.09-.46.42.42 0 0 1 .028-.151.343.343 0 0 1 .326-.219zm4.955 0c.05 0 .096.01.139.025a.348.348 0 0 1 .187.195.407.407 0 0 1 .027.15l-.064.339c-.04.169-.095.372-.156.584a.5.5 0 0 0-.012.049c-.037.124-.065.24-.105.363l-.012.029c-.088-.268-.176-.55-.24-.793-.06-.223-.076-.35-.09-.44l-.026-.13c0-.11.04-.203.102-.268a.34.34 0 0 1 .111-.078.352.352 0 0 1 .139-.025zm2.275 0h.008c.076 0 .144.026.215.09a.5.5 0 0 0 .049.04c.05.062.082.143.082.24 0 0-.033.239-.096.492a13.29 13.29 0 0 1-.244.841c-.005.016-.01.025-.016.041l-.013-.04c-.093-.287-.18-.59-.242-.842-.013-.05-.01-.05-.02-.096a.5.5 0 0 0-.008-.053c-.039-.179-.068-.408-.068-.344 0-.054.01-.108.027-.153a.345.345 0 0 1 .188-.193.352.352 0 0 1 .138-.025zm-4.955 1.371c.533 0 1.036.01 1.533.014l.008.03c.034.121.07.241.108.366-.327.163-.663.331-.92.428-.361.136-.657.194-.727.194-.056 0-.303-.044-.605-.153-.191-.069-.446-.192-.686-.303.061-.192.111-.38.162-.568h.002c.365-.01.734-.01 1.125-.01z" color="#000" font-family="sans-serif" font-weight="400" overflow="visible"></path></g></svg>